<svg xmlns="http://www.w3.org/2000/svg" xmlns:xlink="http://www.w3.org/1999/xlink" width="49" height="49" viewBox="0 0 49 49">
  <defs>
    <linearGradient id="linear-gradient" x1="0.5" x2="0.5" y2="1" gradientUnits="objectBoundingBox">
      <stop offset="0" stop-color="#6fe3ff"/>
      <stop offset="1" stop-color="#2fc7f5"/>
    </linearGradient>
  </defs>
  <rect id="Rectangle_3" data-name="Rectangle 3" width="49" height="49" rx="8" fill="url(#linear-gradient)"/>
  <path id="Icon_awesome-tachometer-alt" data-name="Icon awesome-tachometer-alt" d="M17.679,2.25A17.678,17.678,0,0,0,2.4,28.817a1.942,1.942,0,0,0,1.684.933H31.275a1.942,1.942,0,0,0,1.684-.933A17.678,17.678,0,0,0,17.679,2.25Zm0,3.929A1.938,1.938,0,0,1,19.54,7.63a3.309,3.309,0,0,0-.212.409l-.566,1.7a1.913,1.913,0,0,1-1.083.369,1.964,1.964,0,0,1,0-3.929ZM5.893,23.857a1.964,1.964,0,1,1,1.964-1.964A1.965,1.965,0,0,1,5.893,23.857Zm2.946-9.821A1.964,1.964,0,1,1,10.8,12.071,1.965,1.965,0,0,1,8.839,14.036ZM23.987,9.591,20.222,20.886a3.855,3.855,0,0,1,.84,4.936H14.3a3.888,3.888,0,0,1,3.132-5.868l3.765-11.3a1.473,1.473,0,0,1,2.795.932Zm.9,3.511.953-2.857a1.936,1.936,0,0,1,.678-.137,1.964,1.964,0,1,1,0,3.929,1.935,1.935,0,0,1-1.631-.934Zm4.577,10.755a1.964,1.964,0,1,1,1.964-1.964A1.965,1.965,0,0,1,29.464,23.857Z" transform="translate(6.571 7.75)" fill="#fff"/>
</svg>
